<svg width="352" height="259" viewBox="0 0 352 259" fill="none" xmlns="http://www.w3.org/2000/svg">
<path d="M66.2408 257.821C63.3628 257.821 54.2095 256.592 49.4144 254.963C44.6904 253.358 41.151 246.625 38.5382 241.741C35.7388 236.508 34.6952 230.769 33.9302 226.83C33.1041 222.576 33.3857 211.595 35.4532 204.707C37.0814 199.283 43.9866 200.192 65.8328 199.816C71.7679 199.714 73.7817 198.473 75.2545 197.152C79.413 193.425 76.4488 185.185 73.7567 179.943C71.6922 175.924 68.11 173.792 63.2375 171.308C61.4083 170.375 57.3102 170.643 52.2893 171.062C50.3142 171.227 49.6552 172.32 49.2961 173.589C48.9371 174.857 48.9371 176.529 49.3785 177.583C49.8199 178.638 50.7027 179.024 51.5818 179.134C53.2975 179.349 54.8877 178.266 56.2539 176.85C57.7544 175.295 58.2232 172.281 57.6946 169.132C56.5217 162.143 43.5444 166.797 41.4423 168.051C40.4441 168.647 39.979 169.722 39.689 170.812C39.399 171.902 39.399 173.118 39.8234 174.04C41.5124 177.713 47.0912 176.699 49.8171 176.334C51.0292 176.171 51.7119 175.237 52.2424 174.393C53.2898 172.725 53.4046 169.673 53.017 166.248C52.726 163.677 49.1308 162.128 45.2852 160.612C31.6845 155.249 11.9614 158.806 10.6678 157.186C9.25274 155.413 7.23867 143.942 3.82111 116.163C1.65358 98.5446 1.34902 73.4928 1.0488 60.0959C0.725005 45.6467 2.0925 43.7547 3.19346 42.2435C5.35451 39.2773 9.32758 39.7655 11.2418 40.0651C15.0351 40.6587 16.2025 46.1095 17.5812 50.086C19.474 55.5454 23.2046 72.8472 28.6835 88.4034C29.7049 91.3037 31.939 92.144 33.8622 92.7093C35.6769 93.2428 37.8425 93.2927 40.0206 93.3417C41.0322 93.3644 41.8183 92.7486 42.2756 90.2774C42.7329 87.8062 42.8285 83.336 41.6872 73.8608C38.8075 49.9546 36.2069 34.2136 37.5414 32.4893C38.8994 30.7345 41.6597 31.2569 43.2643 31.6406C47.8239 32.7308 48.1861 42.7279 53.3356 48.4166C55.5498 50.8627 59.1816 51.868 62.5775 52.8208C63.9988 53.2195 64.8829 53.1447 66.3428 50.8442C73.8393 39.0316 77.2536 30.4441 83.9452 22.8053C92.3052 13.2619 97.1805 43.9174 104.688 49.8046C106.365 51.1195 107.553 51.3239 109.176 47.8449C114.017 37.467 116.272 27.079 118.521 24.2184C124.368 16.7825 133.131 44.5091 137.272 47.9762C141.843 51.8041 143.158 21.4851 146.797 10.6125C148.08 6.78079 150.913 3.86618 153.444 1.99875C155.633 0.382719 158.657 1.08303 161.011 1.64803C162.088 1.90651 162.765 2.6341 163.334 3.59247C164.588 5.70671 164.816 9.33194 164.793 12.9901C164.778 15.3962 162.695 17.2464 160.396 18.9981C156.829 21.7154 147.988 21.1125 141.636 20.1745C135.925 19.3309 132.297 12.9629 131.111 10.3865C130.524 9.11 130.708 7.61553 131.487 6.56876C133.2 4.26396 137.951 4.25193 142.47 4.54657C145.957 4.77388 148.744 8.35512 151.184 12.8114C153.233 16.5559 153.157 21.661 152.935 26.3192C152.848 28.1324 151.821 28.7116 150.769 28.9803C148.484 29.5638 146.142 28.3392 144.278 26.7374C143.312 25.9072 142.46 24.8695 141.956 23.3872C141.453 21.905 141.364 19.9657 141.805 18.5346C143.226 13.9255 150.503 12.0936 166.44 8.18394C170.678 7.14445 174.506 7.57342 176.87 8.05605C183.746 9.45953 185.443 18.4414 187.44 20.5024C188.315 21.406 189.247 21.6608 189.757 21.1103C192.733 17.8965 187.795 10.985 181.673 2.59894C180.517 1.01433 179.439 0.929317 178.999 2.07293C177.655 5.56186 178.677 9.26957 179.083 11.3672C182.131 27.121 195.993 47.467 197.368 48.0126C204.593 50.8791 204.249 27.7705 205.07 25.1306C209.093 12.1899 214.069 47.548 221.399 54.1033C226.612 58.7656 233.521 59.0559 236.061 58.4963C238.406 57.9794 237.375 53.195 236.666 49.3096C235.707 44.0515 231.612 39.9491 228.875 37.2598C227.717 36.1226 226.568 35.9711 225.585 36.1658C224.603 36.3605 223.703 37.0399 223.24 38.275C222.172 41.1218 223.016 43.9403 223.631 45.7175C226.793 54.8398 239.727 66.3129 244.649 69.6449C245.643 70.3175 246.64 70.35 247.524 70.2601C248.409 70.1702 249.247 69.7855 249.823 68.8715C251.153 66.7569 251.31 54.0861 251.753 37.0532C252.043 25.9224 247.388 18.7232 246.105 18.3459C245.492 18.1656 245.004 19.6067 244.746 20.8225C244.488 22.0383 244.488 23.3939 252.894 43.3425C261.299 63.2911 278.11 101.792 286.906 122.081C296.077 143.237 296.333 145.494 295.842 147.93C294.796 153.115 286.494 153.891 276.036 155.393C266.356 156.783 259.091 155.022 256.519 153.722C253.584 152.239 251.052 149.863 249.034 147.708C247.494 146.063 247.157 143.664 247.548 141.321C248.62 134.904 266.367 141.159 270.539 143.62C273.693 145.48 280.673 152.844 294.526 173.583C300.317 182.253 308.639 187.309 314.253 191.318C318.782 194.552 322.991 197.506 327.949 201.82C339.333 211.724 343.912 216.101 349.438 219.844C351.586 221.217 352.403 221.523 345.945 222.86C339.487 224.197 325.729 226.556 310.641 228.804" stroke="white" stroke-width="2.00086" stroke-linecap="round"/>
</svg>
